<?xml version="1.0" standalone="no"?>
<!DOCTYPE svg PUBLIC "-//W3C//DTD SVG 20010904//EN"
 "http://www.w3.org/TR/2001/REC-SVG-20010904/DTD/svg10.dtd">
<svg version="1.0" xmlns="http://www.w3.org/2000/svg"
 width="280.000000pt" height="280.000000pt" viewBox="0 0 280.000000 280.000000"
 preserveAspectRatio="xMidYMid meet">
<metadata>
Created by potrace 1.14, written by Peter Selinger 2001-2017
</metadata>
<g transform="translate(0.000000,280.000000) scale(0.100000,-0.100000)"
fill="#000000" stroke="none">
<path d="M1326 2606 c-40 -44 -89 -97 -108 -116 -61 -65 -263 -282 -281 -304
-10 -11 -43 -46 -72 -77 -59 -61 -89 -113 -103 -174 -15 -69 0 -155 37 -216
17 -27 151 -177 151 -168 0 3 -9 25 -21 49 -30 62 -32 129 -4 187 19 41 56 86
185 223 27 28 169 182 244 265 l46 50 52 -56 c94 -98 347 -372 389 -420 42
-48 54 -82 53 -154 0 -53 -6 -79 -23 -110 -20 -34 -13 -30 49 35 94 98 128
168 126 259 -4 115 -16 133 -266 401 -64 69 -143 154 -176 189 -32 35 -68 74
-79 86 -11 11 -43 46 -72 77 l-52 56 -75 -82z"/>
<path d="M1332 1888 c-33 -35 -70 -74 -82 -88 -12 -14 -45 -50 -74 -80 -29
-30 -61 -67 -70 -82 -24 -37 -27 -97 -7 -135 13 -26 105 -127 272 -302 l26
-28 34 38 c19 20 81 86 138 147 133 142 135 146 135 207 0 61 0 61 -162 233
-64 68 -121 131 -125 138 -13 22 -22 17 -85 -48z"/>
<path d="M442 1291 c-21 -9 -54 -27 -73 -40 -75 -52 -88 -81 -207 -466 -23
-71 -63 -202 -91 -290 -27 -88 -51 -166 -53 -174 -2 -10 58 -38 87 -39 3 0 18
-3 33 -6 15 -4 36 -8 47 -11 11 -2 81 -18 155 -35 74 -17 185 -43 245 -56 61
-14 139 -32 175 -41 96 -24 205 -22 256 5 93 48 137 105 174 227 12 39 25 78
31 88 6 11 6 17 -1 17 -5 0 -16 -13 -25 -29 -38 -74 -156 -122 -240 -99 -16 5
-42 11 -57 13 -16 3 -58 12 -95 21 -38 9 -75 17 -83 19 -8 2 -45 10 -81 19
-37 8 -78 17 -90 20 -13 2 -54 11 -90 20 -37 8 -79 17 -94 20 -15 3 -30 7 -33
10 -4 5 18 84 80 276 16 52 32 102 33 110 16 68 87 267 106 294 37 54 112 93
184 96 l40 2 -30 9 c-16 5 -43 12 -60 15 -16 3 -50 10 -74 15 -58 13 -120 9
-169 -10z"/>
<path d="M2108 1287 c-48 -12 -89 -24 -91 -27 -3 -3 18 -5 46 -5 62 0 110 -21
158 -70 38 -38 36 -33 154 -407 26 -81 46 -150 46 -153 -1 -3 8 -29 19 -57 19
-51 26 -88 15 -88 -3 0 -116 -25 -251 -56 -280 -63 -280 -63 -314 -70 -14 -3
-39 -9 -56 -13 -37 -10 -69 -7 -121 10 -50 16 -82 41 -115 91 -16 23 -28 37
-28 33 0 -29 65 -207 88 -240 37 -53 110 -101 178 -116 71 -16 47 -20 554 97
179 41 335 76 348 79 39 7 41 14 22 73 -26 78 -92 291 -95 306 -1 6 -5 18 -8
26 -3 8 -26 83 -52 165 -26 83 -53 173 -62 200 -65 207 -208 280 -435 222z"/>
<path d="M848 1150 c-56 -22 -75 -57 -128 -230 -23 -74 -48 -154 -56 -178 -8
-23 -14 -49 -14 -56 0 -8 43 -23 120 -41 66 -15 122 -27 124 -27 3 0 38 -8 78
-19 93 -24 125 -24 165 1 48 29 60 54 117 242 76 249 73 224 23 233 -23 4 -46
9 -52 11 -5 1 -77 18 -159 38 -140 34 -185 39 -218 26z"/>
<path d="M1785 1140 c-38 -10 -125 -31 -193 -46 -97 -22 -121 -31 -118 -44 3
-8 21 -69 41 -135 20 -66 42 -136 47 -155 28 -91 43 -123 70 -145 54 -45 64
-45 367 25 143 32 154 36 146 50 -6 9 -18 48 -87 275 -17 55 -36 112 -44 126
-32 62 -110 79 -229 49z"/>
</g>
</svg>
